<mxfile host="app.diagrams.net" modified="2020-12-26T12:39:53.253Z" agent="5.0 (Windows NT 10.0; Win64; x64) AppleWebKit/537.36 (KHTML, like Gecko) Chrome/79.0.3945.88 Safari/537.36" etag="0L0PWK70oKkcpKHcb5zp" version="14.1.2" type="github">
  <diagram id="grAfEipi8-6mEYou1HHr" name="Page-1">
    <mxGraphModel dx="1718" dy="962" grid="1" gridSize="10" guides="1" tooltips="1" connect="1" arrows="1" fold="1" page="1" pageScale="1" pageWidth="827" pageHeight="1169" math="0" shadow="0">
      <root>
        <mxCell id="0" />
        <mxCell id="1" parent="0" />
        <mxCell id="oa86yUTpvysGV-nhvWKG-116" value="" style="rounded=0;whiteSpace=wrap;html=1;" vertex="1" parent="1">
          <mxGeometry x="90" y="660" width="260" height="180" as="geometry" />
        </mxCell>
        <mxCell id="oa86yUTpvysGV-nhvWKG-2" value="" style="rounded=0;whiteSpace=wrap;html=1;" vertex="1" parent="1">
          <mxGeometry x="34" y="140" width="760" height="455" as="geometry" />
        </mxCell>
        <mxCell id="oa86yUTpvysGV-nhvWKG-14" style="edgeStyle=orthogonalEdgeStyle;rounded=0;orthogonalLoop=1;jettySize=auto;html=1;exitX=0.5;exitY=0;exitDx=0;exitDy=0;entryX=0.5;entryY=1;entryDx=0;entryDy=0;" edge="1" parent="1" source="oa86yUTpvysGV-nhvWKG-8" target="oa86yUTpvysGV-nhvWKG-11">
          <mxGeometry relative="1" as="geometry" />
        </mxCell>
        <mxCell id="oa86yUTpvysGV-nhvWKG-108" style="edgeStyle=orthogonalEdgeStyle;orthogonalLoop=1;jettySize=auto;html=1;exitX=1;exitY=0.5;exitDx=0;exitDy=0;entryX=0;entryY=0.5;entryDx=0;entryDy=0;rounded=0;jumpStyle=arc;strokeWidth=2;startArrow=diamond;startFill=1;dashed=1;endArrow=diamond;endFill=1;" edge="1" parent="1" source="oa86yUTpvysGV-nhvWKG-8" target="oa86yUTpvysGV-nhvWKG-93">
          <mxGeometry relative="1" as="geometry" />
        </mxCell>
        <mxCell id="oa86yUTpvysGV-nhvWKG-8" value="主调认证过滤器" style="rounded=0;whiteSpace=wrap;html=1;fillColor=#ffe6cc;strokeColor=#d79b00;" vertex="1" parent="1">
          <mxGeometry x="210" y="500" width="120" height="40" as="geometry" />
        </mxCell>
        <mxCell id="oa86yUTpvysGV-nhvWKG-18" style="edgeStyle=orthogonalEdgeStyle;rounded=0;orthogonalLoop=1;jettySize=auto;html=1;exitX=0.5;exitY=0;exitDx=0;exitDy=0;entryX=0.5;entryY=1;entryDx=0;entryDy=0;" edge="1" parent="1" source="oa86yUTpvysGV-nhvWKG-11" target="oa86yUTpvysGV-nhvWKG-15">
          <mxGeometry relative="1" as="geometry" />
        </mxCell>
        <mxCell id="oa86yUTpvysGV-nhvWKG-11" value="权限过滤器" style="rounded=0;whiteSpace=wrap;html=1;fillColor=#ffe6cc;strokeColor=#d79b00;" vertex="1" parent="1">
          <mxGeometry x="210" y="420" width="120" height="40" as="geometry" />
        </mxCell>
        <mxCell id="oa86yUTpvysGV-nhvWKG-21" style="edgeStyle=orthogonalEdgeStyle;rounded=0;orthogonalLoop=1;jettySize=auto;html=1;exitX=0.5;exitY=0;exitDx=0;exitDy=0;entryX=0.5;entryY=1;entryDx=0;entryDy=0;" edge="1" parent="1" source="oa86yUTpvysGV-nhvWKG-15" target="oa86yUTpvysGV-nhvWKG-19">
          <mxGeometry relative="1" as="geometry" />
        </mxCell>
        <mxCell id="oa86yUTpvysGV-nhvWKG-15" value="熔断过滤器" style="rounded=0;whiteSpace=wrap;html=1;fillColor=#ffe6cc;strokeColor=#d79b00;" vertex="1" parent="1">
          <mxGeometry x="210" y="350" width="120" height="40" as="geometry" />
        </mxCell>
        <mxCell id="oa86yUTpvysGV-nhvWKG-19" value="限流过滤器" style="rounded=0;whiteSpace=wrap;html=1;fillColor=#ffe6cc;strokeColor=#d79b00;" vertex="1" parent="1">
          <mxGeometry x="210" y="280" width="120" height="40" as="geometry" />
        </mxCell>
        <mxCell id="oa86yUTpvysGV-nhvWKG-69" value="mock规则" style="rounded=0;whiteSpace=wrap;html=1;fillColor=#ffe6cc;strokeColor=#d79b00;" vertex="1" parent="1">
          <mxGeometry x="60" y="180" width="120" height="40" as="geometry" />
        </mxCell>
        <mxCell id="oa86yUTpvysGV-nhvWKG-70" value="正常规则" style="rounded=0;whiteSpace=wrap;html=1;fillColor=#ffe6cc;strokeColor=#d79b00;" vertex="1" parent="1">
          <mxGeometry x="354" y="180" width="120" height="40" as="geometry" />
        </mxCell>
        <mxCell id="oa86yUTpvysGV-nhvWKG-71" value="故障注入规则" style="rounded=0;whiteSpace=wrap;html=1;fillColor=#ffe6cc;strokeColor=#d79b00;" vertex="1" parent="1">
          <mxGeometry x="210" y="180" width="120" height="40" as="geometry" />
        </mxCell>
        <mxCell id="oa86yUTpvysGV-nhvWKG-73" value="" style="endArrow=none;dashed=1;html=1;dashPattern=1 3;strokeWidth=2;entryX=0.5;entryY=1;entryDx=0;entryDy=0;exitX=0.5;exitY=0;exitDx=0;exitDy=0;" edge="1" parent="1" source="oa86yUTpvysGV-nhvWKG-19" target="oa86yUTpvysGV-nhvWKG-69">
          <mxGeometry width="50" height="50" relative="1" as="geometry">
            <mxPoint x="260" y="290" as="sourcePoint" />
            <mxPoint x="310" y="240" as="targetPoint" />
          </mxGeometry>
        </mxCell>
        <mxCell id="oa86yUTpvysGV-nhvWKG-77" value="" style="endArrow=none;dashed=1;html=1;entryX=0.5;entryY=1;entryDx=0;entryDy=0;" edge="1" parent="1" target="oa86yUTpvysGV-nhvWKG-71">
          <mxGeometry width="50" height="50" relative="1" as="geometry">
            <mxPoint x="270" y="270" as="sourcePoint" />
            <mxPoint x="320" y="220" as="targetPoint" />
          </mxGeometry>
        </mxCell>
        <mxCell id="oa86yUTpvysGV-nhvWKG-78" value="" style="endArrow=none;dashed=1;html=1;exitX=0.5;exitY=0;exitDx=0;exitDy=0;" edge="1" parent="1" source="oa86yUTpvysGV-nhvWKG-19">
          <mxGeometry width="50" height="50" relative="1" as="geometry">
            <mxPoint x="364" y="270" as="sourcePoint" />
            <mxPoint x="414" y="220" as="targetPoint" />
          </mxGeometry>
        </mxCell>
        <mxCell id="oa86yUTpvysGV-nhvWKG-83" value="" style="endArrow=classic;startArrow=classic;html=1;entryX=0.5;entryY=1;entryDx=0;entryDy=0;exitX=0.5;exitY=0;exitDx=0;exitDy=0;" edge="1" parent="1">
          <mxGeometry width="50" height="50" relative="1" as="geometry">
            <mxPoint x="509.5" y="450" as="sourcePoint" />
            <mxPoint x="509.5" y="410" as="targetPoint" />
          </mxGeometry>
        </mxCell>
        <mxCell id="oa86yUTpvysGV-nhvWKG-84" value="" style="rounded=0;whiteSpace=wrap;html=1;" vertex="1" parent="1">
          <mxGeometry x="580" y="170" width="190" height="190" as="geometry" />
        </mxCell>
        <mxCell id="oa86yUTpvysGV-nhvWKG-85" value="名字服务" style="rounded=0;whiteSpace=wrap;html=1;fillColor=#e1d5e7;strokeColor=#9673a6;" vertex="1" parent="1">
          <mxGeometry x="615" y="190" width="120" height="50" as="geometry" />
        </mxCell>
        <mxCell id="oa86yUTpvysGV-nhvWKG-86" value="流控服务" style="rounded=0;whiteSpace=wrap;html=1;fillColor=#e1d5e7;strokeColor=#9673a6;" vertex="1" parent="1">
          <mxGeometry x="410" y="280" width="120" height="40" as="geometry" />
        </mxCell>
        <mxCell id="oa86yUTpvysGV-nhvWKG-87" value="配置中心" style="rounded=0;whiteSpace=wrap;html=1;fillColor=#e1d5e7;strokeColor=#9673a6;" vertex="1" parent="1">
          <mxGeometry x="615" y="270" width="120" height="50" as="geometry" />
        </mxCell>
        <mxCell id="oa86yUTpvysGV-nhvWKG-111" style="edgeStyle=orthogonalEdgeStyle;rounded=0;orthogonalLoop=1;jettySize=auto;html=1;exitX=1;exitY=0.5;exitDx=0;exitDy=0;startArrow=diamond;startFill=1;strokeWidth=2;dashed=1;endArrow=diamond;endFill=1;" edge="1" parent="1" source="oa86yUTpvysGV-nhvWKG-93" target="oa86yUTpvysGV-nhvWKG-84">
          <mxGeometry relative="1" as="geometry" />
        </mxCell>
        <mxCell id="oa86yUTpvysGV-nhvWKG-93" value="" style="rounded=0;whiteSpace=wrap;html=1;" vertex="1" parent="1">
          <mxGeometry x="390" y="390" width="180" height="170" as="geometry" />
        </mxCell>
        <mxCell id="oa86yUTpvysGV-nhvWKG-94" value="第二级缓存" style="rounded=0;whiteSpace=wrap;html=1;fillColor=#f8cecc;strokeColor=#b85450;" vertex="1" parent="1">
          <mxGeometry x="430" y="410" width="120" height="40" as="geometry" />
        </mxCell>
        <mxCell id="oa86yUTpvysGV-nhvWKG-95" value="第一级缓存" style="rounded=0;whiteSpace=wrap;html=1;fillColor=#f8cecc;strokeColor=#b85450;" vertex="1" parent="1">
          <mxGeometry x="430" y="490" width="120" height="40" as="geometry" />
        </mxCell>
        <mxCell id="oa86yUTpvysGV-nhvWKG-96" value="" style="endArrow=none;dashed=1;html=1;entryX=0.5;entryY=0;entryDx=0;entryDy=0;exitX=0.5;exitY=1;exitDx=0;exitDy=0;" edge="1" parent="1" source="oa86yUTpvysGV-nhvWKG-94" target="oa86yUTpvysGV-nhvWKG-95">
          <mxGeometry width="50" height="50" relative="1" as="geometry">
            <mxPoint x="370" y="430" as="sourcePoint" />
            <mxPoint x="420" y="380" as="targetPoint" />
          </mxGeometry>
        </mxCell>
        <mxCell id="oa86yUTpvysGV-nhvWKG-113" value="server" style="rounded=0;whiteSpace=wrap;html=1;fillColor=#1ba1e2;strokeColor=#006EAF;fontColor=#ffffff;" vertex="1" parent="1">
          <mxGeometry x="130" y="690" width="120" height="60" as="geometry" />
        </mxCell>
        <mxCell id="oa86yUTpvysGV-nhvWKG-114" value="server" style="rounded=0;whiteSpace=wrap;html=1;fillColor=#1ba1e2;strokeColor=#006EAF;fontColor=#ffffff;" vertex="1" parent="1">
          <mxGeometry x="150" y="700" width="120" height="60" as="geometry" />
        </mxCell>
        <mxCell id="oa86yUTpvysGV-nhvWKG-115" value="server" style="rounded=0;whiteSpace=wrap;html=1;fillColor=#1ba1e2;strokeColor=#006EAF;fontColor=#ffffff;" vertex="1" parent="1">
          <mxGeometry x="180" y="710" width="120" height="60" as="geometry" />
        </mxCell>
        <mxCell id="oa86yUTpvysGV-nhvWKG-118" value="" style="endArrow=oval;startArrow=oval;html=1;dashed=1;strokeWidth=2;endFill=1;startFill=1;" edge="1" parent="1" target="oa86yUTpvysGV-nhvWKG-86">
          <mxGeometry width="50" height="50" relative="1" as="geometry">
            <mxPoint x="330" y="300" as="sourcePoint" />
            <mxPoint x="380" y="250" as="targetPoint" />
          </mxGeometry>
        </mxCell>
        <mxCell id="oa86yUTpvysGV-nhvWKG-120" value="主调" style="text;html=1;strokeColor=none;fillColor=none;align=center;verticalAlign=middle;whiteSpace=wrap;rounded=0;" vertex="1" parent="1">
          <mxGeometry x="200" y="790" width="40" height="20" as="geometry" />
        </mxCell>
      </root>
    </mxGraphModel>
  </diagram>
</mxfile>
